# xmcd
#
# Track frame offsets: 
#        150
#        16551
#        31189
#        48587
#        65063
#        79796
#        95502
#        105953
#        123987
#        142109
#        159917
#        171299
#        188147
#        210001
#        227352
#        241157
#
# Disc length: 3630 seconds
#
# Revision: 0
# Processed by: cddbd v1.5.2PL0 Copyright (c) Steve Scherf et al.
# Submitted via: ExactAudioCopyFreeDBPlugin 1.0
#
DISCID=bc0e2c10
DTITLE=Kyla Brox - Pain and Glory
DYEAR=2018
DGENRE=Blues
TTITLE0=For The Many
TTITLE1=Pain and Glory
TTITLE2=Sensitive Soul
TTITLE3=Bluesman's Child
TTITLE4=Bloodshot Sky
TTITLE5=Choose Life
TTITLE6=Devil's Bridge
TTITLE7=In The Morning
TTITLE8=Compromise
TTITLE9=Let You Go
TTITLE10=Away From Yesterday
TTITLE11=Lover's Lake
TTITLE12=Don't Let Me Fall
TTITLE13=Manchester Milan
TTITLE14=Top Of The World
TTITLE15=Hallelujah
EXTD=
EXTT0=
EXTT1=
EXTT2=
EXTT3=
EXTT4=
EXTT5=
EXTT6=
EXTT7=
EXTT8=
EXTT9=
EXTT10=
EXTT11=
EXTT12=
EXTT13=
EXTT14=
EXTT15=
PLAYORDER=
